<?xml version="1.0" standalone="no"?>
<!DOCTYPE svg PUBLIC "-//W3C//DTD SVG 20010904//EN"
 "http://www.w3.org/TR/2001/REC-SVG-20010904/DTD/svg10.dtd">
<svg version="1.0" xmlns="http://www.w3.org/2000/svg"
 width="200.000000pt" height="200.000000pt" viewBox="0 0 200.000000 200.000000"
 preserveAspectRatio="xMidYMid meet">
<metadata>
Created by potrace 1.14, written by Peter Selinger 2001-2017
</metadata>
<g transform="translate(0.000000,200.000000) scale(0.100000,-0.100000)"
fill="#000000" stroke="none">
<path d="M0 1000 l0 -1000 1000 0 1000 0 0 1000 0 1000 -1000 0 -1000 0 0
-1000z m1096 487 l27 -23 -27 -42 c-14 -23 -33 -42 -40 -42 -18 0 -46 27 -46
45 0 7 -5 15 -11 17 -18 6 -1 44 24 56 33 16 43 14 73 -11z m-46 -144 c73 -62
82 -78 50 -88 -14 -4 -31 3 -57 24 l-37 30 -40 -29 c-32 -24 -50 -30 -90 -29
-83 1 -91 9 -44 44 22 17 61 47 87 68 25 20 50 37 54 37 5 0 40 -26 77 -57z
m-220 -119 c52 -21 80 -66 80 -130 0 -61 -28 -110 -75 -130 -103 -43 -205 18
-205 124 0 65 26 111 74 133 51 23 74 23 126 3z m-535 -389 c29 -28 32 -70 9
-103 -13 -18 -25 -22 -73 -22 -31 0 -62 5 -69 12 -9 9 -12 5 -12 -20 0 -27 -4
-32 -25 -32 -25 0 -25 1 -25 88 0 49 3 92 7 95 3 4 42 7 85 7 70 0 82 -3 103
-25z m93 -73 l3 -92 -26 0 c-25 0 -25 0 -25 88 0 92 4 105 30 100 12 -3 16
-22 18 -96z m124 85 c7 -8 26 -41 42 -75 16 -34 33 -62 37 -62 5 0 9 33 11 73
3 64 5 72 23 72 18 0 20 -7 21 -80 1 -44 -1 -85 -3 -92 -3 -8 -23 -13 -47 -13
-42 0 -43 1 -81 69 -22 38 -43 67 -47 65 -4 -3 -8 -34 -8 -70 0 -57 -2 -64
-20 -64 -18 0 -20 7 -20 88 0 49 3 92 7 95 11 12 71 7 85 -6z m359 -57 c21
-36 41 -77 44 -92 l7 -28 -76 0 c-42 0 -76 2 -76 4 0 2 -3 11 -6 20 -5 13 2
16 41 16 26 0 45 3 43 8 -2 4 -12 26 -22 50 -22 51 -30 47 -71 -38 -25 -52
-32 -60 -57 -60 -15 0 -28 2 -28 5 0 8 80 158 93 173 5 7 24 12 41 10 26 -3
36 -13 67 -68z m175 62 c7 -4 21 -35 31 -70 11 -35 24 -63 28 -63 5 0 19 26
30 58 27 79 29 81 77 79 l43 -1 3 -92 3 -93 -26 0 c-24 0 -25 2 -25 64 0 77
-12 91 -30 33 -25 -83 -37 -98 -78 -95 -35 3 -38 6 -62 65 -14 34 -28 65 -32
69 -5 4 -8 -25 -8 -65 0 -69 -1 -72 -22 -69 -21 3 -23 9 -26 82 -2 44 -1 85 2
93 6 14 73 18 92 5z m412 -19 c25 -36 82 -149 82 -163 0 -16 -151 -4 -162 13
-14 22 -8 27 37 27 25 0 45 3 45 8 -1 4 -11 27 -24 51 l-23 44 -31 -55 c-18
-31 -32 -60 -32 -66 0 -16 -36 -33 -55 -26 -9 4 -14 9 -13 13 23 47 83 159 90
169 19 22 65 14 86 -15z m121 -8 c17 -19 33 -35 36 -35 3 0 19 16 36 35 29 33
57 44 72 29 3 -4 -13 -32 -38 -63 -28 -37 -45 -68 -47 -91 -2 -27 -7 -35 -23
-35 -16 0 -21 8 -23 35 -2 23 -19 54 -47 91 -25 31 -41 59 -38 63 15 15 43 4
72 -29z m324 -60 c26 -49 47 -93 47 -98 0 -14 -141 -4 -156 11 -24 23 -15 32
32 32 25 0 44 3 42 8 -25 53 -43 82 -50 82 -4 0 -22 -29 -40 -64 -24 -50 -37
-65 -57 -69 -14 -3 -28 -3 -30 -1 -6 6 59 141 83 171 14 18 26 23 50 21 28 -3
36 -12 79 -93z"/>
<path d="M723 1148 c-38 -43 -36 -83 6 -115 44 -34 111 3 111 61 0 65 -75 100
-117 54z"/>
<path d="M150 780 c0 -29 1 -30 48 -30 55 0 75 10 70 36 -3 16 -14 20 -61 22
l-57 3 0 -31z"/>
</g>
</svg>
